<svg preserveAspectRatio="none" overflow="visible" style="display: block;" width="22" height="22" viewBox="0 0 22 22" fill="none" xmlns="http://www.w3.org/2000/svg">
<g id="icon/help">
<path id="Vector" d="M11 19.25C15.5563 19.25 19.25 15.5563 19.25 11C19.25 6.44365 15.5563 2.75 11 2.75C6.44365 2.75 2.75 6.44365 2.75 11C2.75 15.5563 6.44365 19.25 11 19.25Z" stroke="#5B6474" stroke-width="1.65" stroke-linecap="round" stroke-linejoin="round"/>
<path id="Vector_2" d="M8.34167 8.25C8.56969 7.65567 8.99684 7.15885 9.55027 6.84428C10.1037 6.52972 10.7491 6.41689 11.3764 6.52505C12.0037 6.63321 12.5741 6.95565 12.9902 7.43738C13.4064 7.91911 13.6425 8.53029 13.6583 9.16667C13.6583 11 10.9083 11.9167 10.9083 11.9167M11 15.5833H11.0092" stroke="#5B6474" stroke-width="1.65" stroke-linecap="round" stroke-linejoin="round"/>
</g>
</svg>
