<svg preserveAspectRatio="none" overflow="visible" style="display: block;" width="24" height="24" viewBox="0 0 24 24" fill="none" xmlns="http://www.w3.org/2000/svg">
<g id="Icon/link">
<path id="Vector" d="M10 14C10.3722 14.3779 10.8158 14.6781 11.3051 14.8829C11.7944 15.0878 12.3196 15.1933 12.85 15.1933C13.3804 15.1933 13.9056 15.0878 14.3949 14.8829C14.8842 14.6781 15.3278 14.3779 15.7 14L18.7 11C19.4559 10.2441 19.8805 9.21896 19.8805 8.15C19.8805 7.08104 19.4559 6.05587 18.7 5.3C17.9441 4.54413 16.919 4.11949 15.85 4.11949C14.781 4.11949 13.7559 4.54413 13 5.3L12 6.3" stroke="#111827" stroke-width="1.8" stroke-linecap="round" stroke-linejoin="round"/>
<path id="Vector_2" d="M14 10C13.6278 9.62206 13.1842 9.32192 12.6949 9.11706C12.2056 8.91219 11.6804 8.80669 11.15 8.80669C10.6196 8.80669 10.0944 8.91219 9.60513 9.11706C9.11585 9.32192 8.6722 9.62206 8.3 10L5.3 13C4.54413 13.7559 4.11949 14.781 4.11949 15.85C4.11949 16.919 4.54413 17.9441 5.3 18.7C6.05587 19.4559 7.08104 19.8805 8.15 19.8805C9.21896 19.8805 10.2441 19.4559 11 18.7L12 17.7" stroke="#111827" stroke-width="1.8" stroke-linecap="round" stroke-linejoin="round"/>
</g>
</svg>
